<svg width="888" height="589" viewBox="0 0 888 589" fill="none" xmlns="http://www.w3.org/2000/svg">
<path d="M122.269 291.429C82.1356 291.429 54.0874 321.561 40.0201 374.668C107.817 339.488 143.079 340.481 151.007 374.668C158.934 408.856 99.366 524.602 12.2734 568.895" stroke="#FFFF00" stroke-width="19.819" stroke-linecap="round" stroke-linejoin="round"/>
<path d="M184.705 568.898C226.82 513.9 293.709 411.336 295.691 97.2044L351.185 513.9C351.185 513.9 364.562 159.139 406.678 13.9644" stroke="#FFFF00" stroke-width="19.819" stroke-linecap="round" stroke-linejoin="round"/>
<path d="M397.735 568.897C413.302 330.389 422.036 248.211 439.255 189.288C456.543 239.296 465.774 292.025 480.975 457.91" stroke="#FFFF00" stroke-width="19.819" stroke-linecap="round" stroke-linejoin="round"/>
<circle cx="397.741" cy="572.858" r="11.0194" fill="black" stroke="#FFFF00" stroke-width="7.92762"/>
<path d="M397.735 402.417C444.122 385.391 441.44 385.546 481.966 359.311" stroke="#FFFF00" stroke-width="19.819" stroke-linecap="round" stroke-linejoin="round"/>
<path d="M479.002 152.202C524.586 255.757 528.55 433.137 534.495 541.151" stroke="#FFFF00" stroke-width="19.819" stroke-linecap="round" stroke-linejoin="round"/>
<circle cx="535.486" cy="545.115" r="11.0194" fill="black" stroke="#FFFF00" stroke-width="7.92762"/>
<path d="M479.499 151.709C576.612 0.0929287 730.705 175.491 523.101 326.612" stroke="#FFFF00" stroke-width="19.819" stroke-linecap="round" stroke-linejoin="round"/>
<path d="M692.068 236.93C647.475 236.93 619.729 281.028 619.729 319.179C676.708 287.964 718.328 307.783 718.328 358.322C718.328 408.86 672.249 486.155 607.837 541.648" stroke="#FFFF00" stroke-width="19.819" stroke-linecap="round" stroke-linejoin="round"/>
<path d="M724.76 92.3629C754.631 229.791 765.954 320.084 761.087 541.156C801.998 526.89 820.809 522.889 864.485 514.4" stroke="#FFFF00" stroke-width="19.819" stroke-linecap="round" stroke-linejoin="round"/>
<path d="M813.611 263.687C795.774 263.687 779.902 266.703 757.127 277.554" stroke="#FFFF00" stroke-width="19.819" stroke-linecap="round" stroke-linejoin="round"/>
<path d="M815.094 71.9388C780.906 74.4161 763.715 77.3419 725.413 91.7578" stroke="#FFFF00" stroke-width="19.819" stroke-linecap="round" stroke-linejoin="round"/>
<circle cx="815.057" cy="262.812" r="11.0194" fill="black" stroke="#FFFF00" stroke-width="7.92762"/>
<circle cx="871.557" cy="512.533" r="11.0194" fill="black" stroke="#FFFF00" stroke-width="7.92762"/>
<circle cx="121.268" cy="290.441" r="11.0194" fill="black" stroke="#FFFF00" stroke-width="7.92762"/>
<circle cx="811.966" cy="71.4414" r="11.0194" fill="black" stroke="#FFFF00" stroke-width="7.92762"/>
<circle cx="695.021" cy="235.939" r="11.0194" fill="black" stroke="#FFFF00" stroke-width="7.92762"/>
<circle cx="607.821" cy="542.145" r="11.0194" fill="black" stroke="#FFFF00" stroke-width="7.92762"/>
<circle cx="480.973" cy="457.913" r="11.0194" fill="black" stroke="#FFFF00" stroke-width="7.92762"/>
<circle cx="405.663" cy="15.9481" r="11.0194" fill="black" stroke="#FFFF00" stroke-width="7.92762"/>
<circle cx="179.864" cy="572.983" r="11.0194" fill="black" stroke="#FFFF00" stroke-width="7.92762"/>
<circle cx="16.2276" cy="567.909" r="11.0194" fill="black" stroke="#FFFF00" stroke-width="7.92762"/>
<path d="M73.7163 97.2038C73.7163 251.155 193.621 250.306 231.773 236.433" stroke="#FFFF00" stroke-width="19.819" stroke-linecap="round" stroke-linejoin="round"/>
<path d="M240.185 97.2038C235.31 324.376 210.456 482.684 101.452 568.897" stroke="#FFFF00" stroke-width="19.819" stroke-linecap="round" stroke-linejoin="round"/>
<circle cx="72.7266" cy="101.166" r="11.0194" fill="black" stroke="#FFFF00" stroke-width="7.92762"/>
<circle cx="240.314" cy="91.3811" r="11.0194" fill="black" stroke="#FFFF00" stroke-width="7.92762"/>
<circle cx="101.444" cy="568.899" r="11.0194" fill="black" stroke="#FFFF00" stroke-width="7.92762"/>
</svg>
