<svg width="144" height="125" viewBox="0 0 144 125" fill="none" xmlns="http://www.w3.org/2000/svg">
<path d="M67.0114 17.4721C71.7251 14.24 77.6417 16.9271 81.5969 19.9009C85.7362 22.6932 90.0598 25.8583 93.8416 29.1L94.5351 29.4443C105.024 38.0409 114.777 47.5842 122.784 57.6822C124.074 59.4417 125.223 61.4306 124.497 63.7639C121.831 69.6544 116.402 74.3495 111.667 79.4846C101.405 89.2383 90.58 98.6668 78.4545 106.192C76.0056 107.722 72.7004 109.128 69.7639 107.923C60.8458 103.802 53.3257 97.0508 45.513 90.9021C36.4648 83.4912 27.3735 74.8659 20.5143 65.8389C19.4957 64.5767 19.2032 63.0085 19.2357 61.3446C20.1242 58.2272 22.5298 55.6645 24.827 53.0348C32.9323 43.9218 42.8582 35.2678 52.8923 27.3692C53.1306 27.1684 53.5537 26.7381 53.9218 26.5277C58.2237 23.2382 62.5037 20.3312 67.0114 17.4721ZM80.8059 7.98611L75.4853 1.32109C74.824 0.97684 74.0117 0.39352 73.2965 0.221401C71.7253 -0.381058 70.0241 0.345753 68.7455 1.20633L59.1121 12.2797C43.6491 29.1765 25.3472 44.9546 5.37642 57.051C3.80524 58.1412 1.45361 59.2026 0.966001 61.0003C0.446233 62.6068 1.3994 63.9456 2.52653 64.9401C18.5204 74.6651 33.8101 86.1974 47.4092 99.3553C49.8257 101.603 51.787 103.821 54.1493 105.925C58.1261 110.601 62.8074 115.306 66.459 120.326C67.6077 121.387 67.8026 123.118 69.6014 123.634C70.9992 124.065 72.733 124.361 74.0767 123.634L75.4095 122.458C91.9561 101.775 112.934 83.2044 136.373 68.2104C138.724 66.3553 143.2 65.6668 143.265 62.2339C143.102 60.6561 142.062 59.0878 140.512 58.2272L140.133 58.1696C128.073 50.9309 116.825 42.7359 106.238 33.4507L94.5354 22.6643C89.7892 18.0265 85.1945 12.8821 80.8059 7.98611ZM68.7457 20.0155C73.5569 17.1276 77.8696 21.163 81.5971 23.4771C96.009 33.7089 109.608 45.4229 119.957 58.6573C121.268 60.3594 121.853 63.0083 120.693 64.9399C117.995 68.8987 114.376 72.5038 110.941 76.1757V76.3669C102.37 84.4185 93.3325 92.69 83.5476 99.4985C78.7797 102.071 74.4021 107.665 68.2581 104.194C54.2688 95.1667 40.8755 83.9499 29.5302 71.9204C27.6014 69.2716 24.5998 67.1105 23.2562 64.1078C21.3923 60.0438 25.5101 57.1272 27.8614 54.0673C39.4343 41.4735 53.8137 29.1189 68.7457 20.0155ZM71.7797 28.3156L70.4795 32.0067L63.9453 48.5402C65.5815 48.6836 67.6078 48.5402 69.2115 48.6836V48.8175L68.2581 67.512L68.4208 67.7128C70.5121 67.8849 73.1236 67.9806 75.2583 67.6552V67.3588L74.4023 49.2379L74.5321 48.6259L80.2859 48.5397C77.4144 41.846 74.6296 35.0854 71.9532 28.3151L71.7797 28.3156ZM49.5334 54.2107C45.8708 55.8363 40.4744 58.2843 41.0704 62.7213C41.8504 65.1406 44.8306 66.7088 47.182 67.7129C60.1852 72.7619 77.4471 72.934 91.1762 69.1664C94.5679 68.0093 99.1188 66.3359 99.7365 62.6735C99.705 59.6422 96.0739 57.7392 93.4624 56.5822V56.4388C94.3726 56.1136 95.413 55.8363 96.3558 55.7407V55.6643C91.7613 54.9375 87.3185 53.8761 82.8649 52.8338C83.721 54.5646 84.3387 56.3815 85.0539 58.1696C86.3975 57.7967 87.7736 57.5099 89.2147 57.3377C91.5662 58.141 94.9253 59.298 95.2613 61.8894C95.5215 64.3088 92.5089 65.4945 90.6126 66.4699C80.5459 69.702 69.2117 70.0175 58.7116 67.5696C55.8075 66.7568 51.6246 65.724 51.267 62.4632C53.3258 58.1696 58.6464 57.2803 63.0999 56.238C60.8136 54.9375 58.484 53.7805 56.2735 52.3366C53.8787 52.4609 51.6898 53.3788 49.5334 54.2107ZM68.128 72.848C67.738 79.4843 67.6405 85.6235 67.0878 92.2885C70.0568 92.5178 73.4267 92.7475 76.5908 92.3458L75.6482 73.7946L75.4853 72.9149C73.058 72.9913 70.7721 73.0772 68.128 72.848Z" fill="black"/>
</svg>
