<svg width="217" height="199" viewBox="0 0 217 199" fill="none" xmlns="http://www.w3.org/2000/svg">
<g clip-path="url(#clip0_1_10)">
<path d="M108.439 0.810791L47.566 7.32711L0.4375 71.3798L108.439 198.711L216.441 71.3789L169.314 7.32711L108.439 0.810791Z" fill="#FDB300"/>
<path d="M0.4375 71.3811L108.439 198.712L44.1833 71.3811H0.4375Z" fill="#EB6C00"/>
<path d="M172.701 71.3811L108.445 198.712L216.447 71.3811H172.701Z" fill="#EB6C00"/>
<path d="M44.1721 71.3811L108.428 198.712L172.684 71.3811H44.1721Z" fill="#FDAD00"/>
<path d="M47.5554 7.32711L44.1719 71.3798L108.429 0.810791L47.5554 7.32711Z" fill="#FDD231"/>
<path d="M172.701 71.3798L169.319 7.32711L108.445 0.810791L172.701 71.3798Z" fill="#FDD231"/>
<path d="M172.694 71.383H216.44L169.312 7.33032L172.694 71.383Z" fill="#FDAD00"/>
<path d="M0.4375 71.383H44.1833L47.566 7.33032L0.4375 71.383Z" fill="#FDAD00"/>
<path d="M108.428 0.810791L44.1719 71.3789H172.684L108.428 0.810791Z" fill="#FEEEB7"/>
</g>
<defs>
<clipPath id="clip0_1_10">
<rect width="216.004" height="198.189" fill="white" transform="translate(0.4375 0.810791)"/>
</clipPath>
</defs>
</svg>
