<svg width="991" height="878" viewBox="0 0 991 878" fill="none" xmlns="http://www.w3.org/2000/svg">
<path d="M136.244 325.271C91.3589 325.271 59.9896 358.971 44.2567 418.367C120.081 379.021 159.519 380.131 168.385 418.367C177.251 456.603 110.63 586.053 13.2247 635.591" stroke="black" stroke-width="22.1657" stroke-linecap="round" stroke-linejoin="round"/>
<path d="M81.9388 108.047C81.9388 280.227 216.041 279.277 258.71 263.761" stroke="black" stroke-width="22.1657" stroke-linecap="round" stroke-linejoin="round"/>
<path d="M268.13 108.047C262.678 362.118 234.881 539.17 112.97 635.591" stroke="black" stroke-width="22.1657" stroke-linecap="round" stroke-linejoin="round"/>
<path d="M206.067 635.591C253.169 574.082 327.978 459.374 330.195 108.047L392.259 574.082C392.259 574.082 407.221 177.315 454.323 14.951" stroke="black" stroke-width="22.1657" stroke-linecap="round" stroke-linejoin="round"/>
<path d="M444.348 635.591C461.758 368.843 471.526 276.935 490.784 211.035C510.119 266.964 520.443 325.936 537.444 511.463" stroke="black" stroke-width="22.1657" stroke-linecap="round" stroke-linejoin="round"/>
<path d="M456.671 640.025C456.671 646.831 451.153 652.349 444.347 652.349C437.54 652.349 432.023 646.831 432.023 640.025C432.023 633.218 437.54 627.701 444.347 627.701C451.153 627.701 456.671 633.218 456.671 640.025Z" fill="#FFFF00" stroke="black" stroke-width="8.86629"/>
<path d="M444.348 449.399C496.227 430.357 493.228 430.529 538.552 401.188" stroke="black" stroke-width="22.1657" stroke-linecap="round" stroke-linejoin="round"/>
<path d="M535.228 169.557C586.209 285.373 590.642 483.756 597.292 604.56" stroke="black" stroke-width="22.1657" stroke-linecap="round" stroke-linejoin="round"/>
<path d="M610.723 608.993C610.723 615.799 605.205 621.317 598.399 621.317C591.592 621.317 586.075 615.799 586.075 608.993C586.075 602.186 591.592 596.668 598.399 596.668C605.205 596.668 610.723 602.186 610.723 608.993Z" fill="#FFFF00" stroke="black" stroke-width="8.86629"/>
<path d="M535.782 169.003C644.394 -0.565113 816.733 195.602 584.547 364.615" stroke="black" stroke-width="22.1657" stroke-linecap="round" stroke-linejoin="round"/>
<path d="M773.509 264.316C723.636 264.316 692.604 313.634 692.604 356.303C756.331 321.392 802.879 343.558 802.879 400.081C802.879 456.603 751.344 543.05 679.305 605.114" stroke="black" stroke-width="22.1657" stroke-linecap="round" stroke-linejoin="round"/>
<path d="M810.083 102.627C843.49 256.327 856.153 357.311 850.71 604.559C896.465 588.605 917.503 584.13 966.351 574.635" stroke="black" stroke-width="22.1657" stroke-linecap="round" stroke-linejoin="round"/>
<path d="M909.449 294.239C889.5 294.239 871.748 297.612 846.277 309.748" stroke="black" stroke-width="22.1657" stroke-linecap="round" stroke-linejoin="round"/>
<path d="M911.111 79.7856C872.876 82.5563 853.649 85.8286 810.811 101.951" stroke="black" stroke-width="22.1657" stroke-linecap="round" stroke-linejoin="round"/>
<path d="M93.1531 112.481C93.1531 119.287 87.6354 124.805 80.829 124.805C74.0225 124.805 68.5048 119.287 68.5048 112.481C68.5048 105.674 74.0225 100.157 80.829 100.157C87.6354 100.157 93.1531 105.674 93.1531 112.481Z" fill="#FFFF00" stroke="black" stroke-width="8.86629"/>
<path d="M923.394 293.264C923.394 300.071 917.876 305.588 911.07 305.588C904.263 305.588 898.746 300.071 898.746 293.264C898.746 286.458 904.263 280.94 911.07 280.94C917.876 280.94 923.394 286.458 923.394 293.264Z" fill="#FFFF00" stroke="black" stroke-width="8.86629"/>
<path d="M986.567 572.552C986.567 579.358 981.049 584.876 974.243 584.876C967.436 584.876 961.918 579.358 961.918 572.552C961.918 565.745 967.436 560.228 974.243 560.228C981.049 560.228 986.567 565.745 986.567 572.552Z" fill="#FFFF00" stroke="black" stroke-width="8.86629"/>
<path d="M147.459 324.163C147.459 330.97 141.942 336.487 135.135 336.487C128.329 336.487 122.811 330.97 122.811 324.163C122.811 317.357 128.329 311.839 135.135 311.839C141.942 311.839 147.459 317.357 147.459 324.163Z" fill="#FFFF00" stroke="black" stroke-width="8.86629"/>
<path d="M919.936 79.2318C919.936 86.0382 914.418 91.556 907.611 91.556C900.805 91.556 895.287 86.0382 895.287 79.2318C895.287 72.4254 900.805 66.9077 907.611 66.9077C914.418 66.9077 919.936 72.4254 919.936 79.2318Z" fill="#FFFF00" stroke="black" stroke-width="8.86629"/>
<path d="M789.157 263.207C789.157 270.013 783.64 275.531 776.833 275.531C770.027 275.531 764.509 270.013 764.509 263.207C764.509 256.401 770.027 250.883 776.833 250.883C783.64 250.883 789.157 256.401 789.157 263.207Z" fill="#FFFF00" stroke="black" stroke-width="8.86629"/>
<path d="M691.628 605.668C691.628 612.474 686.11 617.992 679.304 617.992C672.497 617.992 666.98 612.474 666.98 605.668C666.98 598.861 672.497 593.343 679.304 593.343C686.11 593.343 691.628 598.861 691.628 605.668Z" fill="#FFFF00" stroke="black" stroke-width="8.86629"/>
<path d="M549.768 511.463C549.768 518.27 544.25 523.787 537.444 523.787C530.637 523.787 525.12 518.27 525.12 511.463C525.12 504.657 530.637 499.139 537.444 499.139C544.25 499.139 549.768 504.657 549.768 511.463Z" fill="#FFFF00" stroke="black" stroke-width="8.86629"/>
<path d="M465.538 17.1681C465.538 23.9745 460.02 29.4922 453.214 29.4922C446.407 29.4922 440.89 23.9745 440.89 17.1681C440.89 10.3616 446.407 4.84394 453.214 4.84394C460.02 4.84394 465.538 10.3616 465.538 17.1681Z" fill="#FFFF00" stroke="black" stroke-width="8.86629"/>
<path d="M280.589 101.53C280.589 108.337 275.071 113.855 268.264 113.855C261.458 113.855 255.94 108.337 255.94 101.53C255.94 94.724 261.458 89.2063 268.264 89.2063C275.071 89.2063 280.589 94.724 280.589 101.53Z" fill="#FFFF00" stroke="black" stroke-width="8.86629"/>
<path d="M212.983 640.157C212.983 646.964 207.465 652.481 200.659 652.481C193.852 652.481 188.335 646.964 188.335 640.157C188.335 633.351 193.852 627.833 200.659 627.833C207.465 627.833 212.983 633.351 212.983 640.157Z" fill="#FFFF00" stroke="black" stroke-width="8.86629"/>
<path d="M29.9814 634.483C29.9814 641.29 24.4637 646.807 17.6573 646.807C10.8508 646.807 5.33314 641.29 5.33314 634.483C5.33314 627.677 10.8508 622.159 17.6573 622.159C24.4637 622.159 29.9814 627.677 29.9814 634.483Z" fill="#FFFF00" stroke="black" stroke-width="8.86629"/>
<path d="M125.294 635.592C125.294 642.398 119.776 647.916 112.97 647.916C106.163 647.916 100.646 642.398 100.646 635.592C100.646 628.785 106.163 623.267 112.97 623.267C119.776 623.267 125.294 628.785 125.294 635.592Z" fill="#FFFF00" stroke="black" stroke-width="8.86629"/>
</svg>
